<svg width="768" height="1890" viewBox="0 0 768 1890" fill="none" xmlns="http://www.w3.org/2000/svg">
<path d="M0 1615L384 1885L768 1615" stroke="#148CE2" stroke-width="10" stroke-linecap="round" stroke-linejoin="round"/>
<path d="M0 0H640L768 70V1615L386.876 1882.98C385.151 1884.19 382.849 1884.19 381.124 1882.98L0 1615V0Z" fill="#20B1F9"/>
<mask id="mask0_737_449" style="mask-type:alpha" maskUnits="userSpaceOnUse" x="0" y="0" width="768" height="1884">
<path d="M0 0H640L768 70V1615L386.876 1882.98C385.151 1884.19 382.849 1884.19 381.124 1882.98L0 1615V0Z" fill="#20B1F9"/>
</mask>
<g mask="url(#mask0_737_449)">
<g opacity="0.05">
<circle cx="240" cy="240" r="210.5" transform="matrix(1 0 0.0227472 0.999741 138.372 885.523)" stroke="#276DB2" stroke-width="59"/>
<circle cx="437.575" cy="437.575" r="408.075" transform="matrix(1 0 0.0227472 0.999741 -63.6968 688)" stroke="#276DB2" stroke-width="59"/>
<circle cx="624.623" cy="624.623" r="595.123" transform="matrix(1 0 0.0227472 0.999741 -255 501)" stroke="#276DB2" stroke-width="59"/>
<circle cx="624.623" cy="624.623" r="595.123" transform="matrix(1 0 0.0227472 0.999741 638 -454)" stroke="#276DB2" stroke-width="59"/>
<circle cx="240" cy="240" r="210.5" transform="matrix(1 0 0.0227472 0.999741 -237.628 -398.477)" stroke="#276DB2" stroke-width="59"/>
<circle cx="437.575" cy="437.575" r="408.075" transform="matrix(1 0 0.0227472 0.999741 -442 -596)" stroke="#276DB2" stroke-width="59"/>
<circle cx="624.623" cy="624.623" r="595.123" transform="matrix(1 0 0.0227472 0.999741 -631 -783)" stroke="#276DB2" stroke-width="59"/>
<circle cx="624.623" cy="624.623" r="595.123" transform="matrix(1 0 0.0227472 0.999741 -1214 1423)" stroke="#276DB2" stroke-width="59"/>
<circle cx="624.623" cy="624.623" r="595.123" transform="matrix(1 0 0.0227472 0.999741 146 1755)" stroke="#276DB2" stroke-width="59"/>
</g>
</g>
</svg>
