<svg width="1440" height="2069" viewBox="0 0 1440 2069" fill="none" xmlns="http://www.w3.org/2000/svg">
<path d="M0 1644L720 2064L1440 1644" stroke="#148CE2" stroke-width="10" stroke-linecap="round" stroke-linejoin="round"/>
<path d="M1170 0H0V1643.5L717.48 2062.53C719.037 2063.44 720.963 2063.44 722.521 2062.53L1440 1644V170L1170 0Z" fill="#20B1F9"/>
<mask id="mask0_437_925" style="mask-type:alpha" maskUnits="userSpaceOnUse" x="0" y="0" width="1440" height="2064">
<path d="M1170 0H0V1643.5L717.48 2062.53C719.037 2063.44 720.963 2063.44 722.521 2062.53L1440 1644V170L1170 0Z" fill="#20B1F9"/>
</mask>
<g mask="url(#mask0_437_925)">
<g opacity="0.05">
<circle cx="240" cy="240" r="210.5" transform="matrix(1 0 0.0227472 0.999741 468.74 844.635)" stroke="#276DB2" stroke-width="59"/>
<circle cx="437.575" cy="437.575" r="408.075" transform="matrix(1 0 0.0227472 0.999741 266.672 647.112)" stroke="#276DB2" stroke-width="59"/>
<circle cx="624.623" cy="624.623" r="595.123" transform="matrix(1 0 0.0227472 0.999741 75.3684 460.112)" stroke="#276DB2" stroke-width="59"/>
<circle cx="240" cy="240" r="210.5" transform="matrix(1 0 0.0227472 0.999741 1361.74 -110.365)" stroke="#276DB2" stroke-width="59"/>
<circle cx="437.575" cy="437.575" r="408.075" transform="matrix(1 0 0.0227472 0.999741 1159.67 -307.888)" stroke="#276DB2" stroke-width="59"/>
<circle cx="624.623" cy="624.623" r="595.123" transform="matrix(1 0 0.0227472 0.999741 968.368 -494.888)" stroke="#276DB2" stroke-width="59"/>
<circle cx="240" cy="240" r="210.5" transform="matrix(1 0 0.0227472 0.999741 92.7405 -439.365)" stroke="#276DB2" stroke-width="59"/>
<circle cx="437.575" cy="437.575" r="408.075" transform="matrix(1 0 0.0227472 0.999741 -111.632 -636.888)" stroke="#276DB2" stroke-width="59"/>
<circle cx="624.623" cy="624.623" r="595.123" transform="matrix(1 0 0.0227472 0.999741 -300.632 -823.888)" stroke="#276DB2" stroke-width="59"/>
<circle cx="624.623" cy="624.623" r="595.123" transform="matrix(1 0 0.0227472 0.999741 -1252.63 118.112)" stroke="#276DB2" stroke-width="59"/>
<circle cx="240" cy="240" r="210.5" transform="matrix(1 0 0.0227472 0.999741 -490.26 1766.64)" stroke="#276DB2" stroke-width="59"/>
<circle cx="437.575" cy="437.575" r="408.075" transform="matrix(1 0 0.0227472 0.999741 -692.328 1569.11)" stroke="#276DB2" stroke-width="59"/>
<circle cx="624.623" cy="624.623" r="595.123" transform="matrix(1 0 0.0227472 0.999741 -883.632 1382.11)" stroke="#276DB2" stroke-width="59"/>
<circle cx="437.575" cy="437.575" r="408.075" transform="matrix(1 0 0.0227472 0.999741 667.672 1901.11)" stroke="#276DB2" stroke-width="59"/>
<circle cx="624.623" cy="624.623" r="595.123" transform="matrix(1 0 0.0227472 0.999741 476.368 1714.11)" stroke="#276DB2" stroke-width="59"/>
</g>
</g>
</svg>
