<svg width="854" height="847" viewBox="0 0 854 847" fill="none" xmlns="http://www.w3.org/2000/svg">
<mask id="mask0_437_1140" style="mask-type:alpha" maskUnits="userSpaceOnUse" x="597" y="174" width="224" height="155">
<rect x="597" y="174.188" width="224" height="154" fill="url(#paint0_linear_437_1140)"/>
</mask>
<g mask="url(#mask0_437_1140)">
<path opacity="0.5" fill-rule="evenodd" clip-rule="evenodd" d="M597.33 315.997C598.002 317.144 599.475 317.529 600.621 316.857L600.836 316.731C601.982 316.059 602.367 314.585 601.696 313.439C601.024 312.292 599.551 311.907 598.405 312.579L598.19 312.705C597.044 313.377 596.659 314.851 597.33 315.997ZM623.389 300.725C624.06 301.872 625.533 302.257 626.679 301.585L627.11 301.333C628.256 300.661 628.641 299.187 627.969 298.04C627.298 296.894 625.825 296.509 624.679 297.18L624.248 297.433C623.102 298.105 622.717 299.579 623.389 300.725ZM649.662 285.327C650.334 286.473 651.807 286.858 652.953 286.187L653.384 285.934C654.53 285.262 654.914 283.788 654.243 282.642C653.572 281.495 652.098 281.11 650.952 281.782L650.522 282.035C649.376 282.706 648.991 284.18 649.662 285.327ZM675.936 269.928C676.607 271.075 678.081 271.46 679.227 270.788L679.657 270.536C680.803 269.864 681.188 268.39 680.517 267.244C679.845 266.097 678.372 265.712 677.226 266.384L676.795 266.636C675.649 267.308 675.265 268.782 675.936 269.928ZM702.21 254.53C702.881 255.676 704.354 256.061 705.5 255.39L705.931 255.137C707.077 254.466 707.462 252.992 706.79 251.845C706.119 250.699 704.646 250.314 703.5 250.985L703.069 251.238C701.923 251.909 701.538 253.383 702.21 254.53ZM728.483 239.131C729.155 240.278 730.628 240.663 731.774 239.991L732.205 239.739C733.351 239.067 733.735 237.593 733.064 236.447C732.393 235.3 730.919 234.915 729.773 235.587L729.343 235.839C728.197 236.511 727.812 237.985 728.483 239.131ZM754.757 223.733C755.428 224.88 756.902 225.265 758.048 224.593L758.478 224.34C759.624 223.669 760.009 222.195 759.338 221.048C758.666 219.902 757.193 219.517 756.047 220.188L755.616 220.441C754.47 221.113 754.086 222.587 754.757 223.733ZM781.031 208.335C781.702 209.481 783.175 209.866 784.321 209.195L784.752 208.942C785.898 208.27 786.283 206.796 785.611 205.65C784.94 204.503 783.467 204.118 782.321 204.79L781.89 205.042C780.744 205.714 780.359 207.188 781.031 208.335ZM807.304 192.936C807.976 194.083 809.449 194.468 810.595 193.796L810.81 193.67C811.956 192.998 812.341 191.524 811.67 190.378C810.998 189.231 809.525 188.846 808.379 189.518L808.164 189.644C807.018 190.316 806.633 191.79 807.304 192.936Z" fill="white"/>
</g>
<mask id="mask1_437_1140" style="mask-type:alpha" maskUnits="userSpaceOnUse" x="45" y="189" width="215" height="145">
<rect x="45" y="189.188" width="215" height="144" fill="url(#paint1_linear_437_1140)"/>
</mask>
<g mask="url(#mask1_437_1140)">
<path opacity="0.5" fill-rule="evenodd" clip-rule="evenodd" d="M259.67 315.997C258.998 317.144 257.525 317.529 256.379 316.857L256.164 316.731C255.018 316.059 254.633 314.585 255.304 313.439C255.976 312.292 257.449 311.907 258.595 312.579L258.81 312.705C259.956 313.377 260.341 314.851 259.67 315.997ZM233.611 300.725C232.94 301.872 231.467 302.257 230.321 301.585L229.89 301.333C228.744 300.661 228.359 299.187 229.031 298.04C229.702 296.894 231.175 296.509 232.321 297.18L232.752 297.433C233.898 298.105 234.283 299.579 233.611 300.725ZM207.338 285.327C206.666 286.473 205.193 286.858 204.047 286.187L203.616 285.934C202.47 285.262 202.086 283.788 202.757 282.642C203.428 281.495 204.902 281.11 206.048 281.782L206.478 282.035C207.624 282.706 208.009 284.18 207.338 285.327ZM181.064 269.928C180.393 271.075 178.919 271.46 177.773 270.788L177.343 270.536C176.197 269.864 175.812 268.39 176.483 267.244C177.155 266.097 178.628 265.712 179.774 266.384L180.205 266.636C181.351 267.308 181.735 268.782 181.064 269.928ZM154.79 254.53C154.119 255.676 152.646 256.061 151.5 255.39L151.069 255.137C149.923 254.466 149.538 252.992 150.21 251.845C150.881 250.699 152.354 250.314 153.5 250.985L153.931 251.238C155.077 251.909 155.462 253.383 154.79 254.53ZM128.517 239.131C127.845 240.278 126.372 240.663 125.226 239.991L124.795 239.739C123.649 239.067 123.265 237.593 123.936 236.447C124.607 235.3 126.081 234.915 127.227 235.587L127.657 235.839C128.803 236.511 129.188 237.985 128.517 239.131ZM102.243 223.733C101.572 224.88 100.098 225.265 98.9524 224.593L98.5217 224.34C97.3756 223.669 96.9908 222.195 97.6622 221.048C98.3336 219.902 99.8068 219.517 100.953 220.188L101.384 220.441C102.53 221.113 102.914 222.587 102.243 223.733ZM75.9694 208.335C75.298 209.481 73.8247 209.866 72.6787 209.195L72.248 208.942C71.102 208.27 70.7172 206.796 71.3885 205.65C72.0599 204.503 73.5332 204.118 74.6792 204.79L75.1099 205.042C76.2559 205.714 76.6407 207.188 75.9694 208.335ZM49.6957 192.936C49.0243 194.083 47.5511 194.468 46.405 193.796L46.1897 193.67C45.0437 192.998 44.6589 191.524 45.3302 190.378C46.0016 189.231 47.4749 188.846 48.6209 189.518L48.8362 189.644C49.9823 190.316 50.3671 191.79 49.6957 192.936Z" fill="white"/>
</g>
<path opacity="0.2" d="M244.34 672.367L431.348 563.998L618.357 672.367L431.348 780.257L244.34 672.367Z" fill="white" stroke="white" stroke-width="8"/>
<path opacity="0.5" d="M431.527 784.87L431.527 789.674L236.349 677.371L236.349 672.369L431.527 784.87Z" fill="white"/>
<path opacity="0.1" d="M626.349 672.368L626.349 677.369L431.349 564.376L431.349 559.375L626.349 672.368Z" fill="white"/>
<path opacity="0.7" d="M431.526 784.871L431.526 789.676L626.348 677.372L626.348 672.371L431.526 784.871Z" fill="white"/>
<path opacity="0.1" d="M236.349 672.371L236.348 677.371L431.348 564.371L431.348 559.371L236.349 672.371Z" fill="white"/>
<g opacity="0.5">
<path opacity="0.2" d="M688.843 253.41V469.081L501.781 361.24V145.57L688.843 253.41Z" fill="white" stroke="white" stroke-width="8"/>
<ellipse opacity="0.2" cx="596.958" cy="316.357" rx="19.3596" ry="26.3791" transform="rotate(-30 596.958 316.357)" fill="white"/>
<ellipse cx="596.958" cy="316.358" rx="4.27108" ry="5.81969" transform="rotate(-30 596.958 316.358)" fill="white"/>
<path opacity="0.5" d="M693.003 251.691L697.503 249.691L502.503 137.191L498.003 139.191L693.003 251.691Z" fill="white"/>
<path opacity="0.1" d="M693.003 476.691L697.503 474.691L502.503 362.191L498.003 364.191L693.003 476.691Z" fill="white"/>
<path opacity="0.7" d="M693.003 251.691L697.503 249.691V474.691L693.003 476.691V251.691Z" fill="white"/>
<path opacity="0.1" d="M498.003 139.191L502.503 137.191V362.191L498.003 364.191V139.191Z" fill="white"/>
<path opacity="0.2" d="M167.843 254.41V470.081L354.905 362.24V146.57L167.843 254.41Z" fill="white" stroke="white" stroke-width="8"/>
<ellipse opacity="0.2" cx="19.3596" cy="26.3791" rx="19.3596" ry="26.3791" transform="matrix(-0.866025 -0.5 -0.5 0.866025 289.914 304.192)" fill="white"/>
<ellipse cx="4.27108" cy="5.81969" rx="4.27108" ry="5.81969" transform="matrix(-0.866025 -0.5 -0.5 0.866025 266.567 314.453)" fill="white"/>
<path opacity="0.5" d="M164.503 251.691L160.003 249.691L355.003 137.191L359.503 139.191L164.503 251.691Z" fill="white"/>
<path opacity="0.1" d="M164.503 476.691L160.003 474.691L355.003 362.191L359.503 364.191L164.503 476.691Z" fill="white"/>
<path opacity="0.7" d="M164.503 251.691L160.003 249.691V474.691L164.503 476.691V251.691Z" fill="white"/>
<path opacity="0.1" d="M359.503 139.191L355.003 137.191V362.191L359.503 364.191V139.191Z" fill="white"/>
</g>
<path opacity="0.2" d="M354.107 469.184L427.843 426.676L501.578 469.184L427.843 511.692L354.107 469.184Z" fill="white" stroke="white" stroke-width="8"/>
<path opacity="0.3" d="M431.843 419.748V334.732L505.587 377.245V462.262L431.843 419.748Z" fill="white" stroke="white" stroke-width="8"/>
<path opacity="0.4" d="M423.843 419.748V334.732L350.099 377.245V462.262L423.843 419.748Z" fill="white" stroke="white" stroke-width="8"/>
<path d="M427.843 327.809L509.587 374.935L427.843 422.06L346.099 374.935L427.843 327.809Z" fill="url(#paint2_linear_437_1140)"/>
<path d="M427.843 516.312L509.587 469.187V374.936L427.843 422.062V516.312Z" fill="url(#paint3_linear_437_1140)"/>
<path d="M427.843 516.312L346.098 469.187V374.936L427.843 422.062V516.312Z" fill="url(#paint4_linear_437_1140)"/>
<circle cx="427.503" cy="411.691" r="43.5" fill="url(#paint5_linear_437_1140)"/>
<ellipse cx="427.503" cy="412.042" rx="40.6936" ry="40.3427" fill="black"/>
<g opacity="0.5" filter="url(#filter0_f_437_1140)">
<circle cx="428.003" cy="347.191" r="41" fill="white"/>
</g>
<g style="mix-blend-mode:screen" filter="url(#filter1_f_437_1140)">
<circle cx="428.003" cy="347.191" r="35" fill="#FF0099"/>
</g>
<circle cx="428.003" cy="347.191" r="35" fill="url(#paint6_radial_437_1140)"/>
<circle cx="428.003" cy="347.191" r="34.5" stroke="white" stroke-opacity="0.2"/>
<g filter="url(#filter2_f_437_1140)">
<circle cx="419.003" cy="380.191" r="1" fill="white"/>
<circle cx="1" cy="1" r="1" transform="matrix(-1 0 0 1 467.003 361.191)" fill="white"/>
<circle cx="1" cy="1" r="1" transform="matrix(-1 0 0 1 465.003 315.191)" fill="white"/>
<circle cx="1" cy="1" r="1" transform="matrix(-1 0 0 1 421.003 344.191)" fill="white"/>
<circle cx="1" cy="1" r="1" transform="matrix(-1 0 0 1 392.003 344.191)" fill="white"/>
<circle cx="1" cy="1" r="1" transform="matrix(-1 0 0 1 437.003 373.191)" fill="white"/>
<circle cx="1" cy="1" r="1" transform="matrix(-1 0 0 1 459.003 339.191)" fill="white"/>
<circle cx="1" cy="1" r="1" transform="matrix(-1 0 0 1 406.003 312.191)" fill="white"/>
<circle cx="0.5" cy="0.5" r="0.5" transform="matrix(-1 0 0 1 437.003 314.191)" fill="white"/>
<circle cx="0.5" cy="0.5" r="0.5" transform="matrix(-1 0 0 1 441.003 353.191)" fill="white"/>
<circle cx="0.5" cy="0.5" r="0.5" transform="matrix(0.111283 0.993789 0.993789 -0.111283 398.003 352.004)" fill="white"/>
<circle cx="0.5" cy="0.5" r="0.5" transform="matrix(0.111283 0.993789 0.993789 -0.111283 448.233 333.301)" fill="white"/>
<circle cx="0.5" cy="0.5" r="0.5" transform="matrix(-0.260418 0.965496 0.965496 0.260418 406.263 344.191)" fill="white"/>
<circle cx="0.5" cy="0.5" r="0.5" transform="matrix(-0.260418 0.965496 0.965496 0.260418 459.854 345.184)" fill="white"/>
</g>
<path opacity="0.2" d="M239.993 169.184L427.002 60.8145L614.011 169.184L427.002 277.073L239.993 169.184Z" fill="white" stroke="white" stroke-width="8"/>
<path opacity="0.2" d="M324.002 463.598V679.268L136.94 571.428V355.757L324.002 463.598Z" fill="white" stroke="white" stroke-width="8"/>
<ellipse opacity="0.2" cx="229.957" cy="518.357" rx="19.3596" ry="26.3791" transform="rotate(-30 229.957 518.357)" fill="white"/>
<ellipse cx="229.958" cy="518.358" rx="4.27108" ry="5.81969" transform="rotate(-30 229.958 518.358)" fill="white"/>
<path opacity="0.5" d="M328.003 462.691L332.503 460.691L137.503 348.191L133.003 350.191L328.003 462.691Z" fill="white"/>
<path opacity="0.1" d="M328.003 687.691L332.503 685.691L137.503 573.191L133.003 575.191L328.003 687.691Z" fill="white"/>
<path opacity="0.7" d="M328.003 462.691L332.503 460.691V685.691L328.003 687.691V462.691Z" fill="white"/>
<path opacity="0.1" d="M133.003 350.191L137.503 348.191V573.191L133.003 575.191V350.191Z" fill="white"/>
<path opacity="0.5" d="M427.179 281.698L427.179 286.503L232.001 174.199L232.001 169.197L427.179 281.698Z" fill="white"/>
<path opacity="0.1" d="M622.001 169.196L622.001 174.198L427.001 61.2045L427.001 56.2031L622.001 169.196Z" fill="white"/>
<path opacity="0.7" d="M427.18 281.699L427.18 286.504L622.002 174.2L622.002 169.199L427.18 281.699Z" fill="white"/>
<path opacity="0.1" d="M232.001 169.199L232.001 174.199L427.001 61.1992L427.001 56.1992L232.001 169.199Z" fill="white"/>
<path opacity="0.2" d="M142.534 580.174L181.546 602.664L205.929 476.155L220.58 400.25L181.546 377.759C166.001 458.415 142.534 580.174 142.534 580.174Z" fill="white"/>
<path opacity="0.2" d="M133.003 575.094L157.385 448.585L172.037 372.679L133.003 350.189L133.003 575.094Z" fill="white"/>
<path opacity="0.2" d="M531.841 466.41V682.081L718.903 574.24V358.57L531.841 466.41Z" fill="white" stroke="white" stroke-width="8"/>
<path opacity="0.5" d="M528.501 463.691L524.001 461.691L719.001 349.191L723.501 351.191L528.501 463.691Z" fill="white"/>
<path opacity="0.1" d="M528.501 688.691L524.001 686.691L719.001 574.191L723.501 576.191L528.501 688.691Z" fill="white"/>
<path opacity="0.7" d="M528.501 463.691L524.001 461.691V686.691L528.501 688.691V463.691Z" fill="white"/>
<path opacity="0.1" d="M723.501 351.191L719.001 349.191V574.191L723.501 576.191V351.191Z" fill="white"/>
<path opacity="0.2" d="M601.519 642.191L649.317 394.191L600.573 422.191L552.775 670.191L551.775 675.191L601.001 647.191L601.519 642.191Z" fill="white"/>
<path opacity="0.1" d="M619.208 631.426L618.208 637.191L642.591 622.691L643.591 617.369L691.327 369.691L666.956 383.691L619.208 631.426Z" fill="white"/>
<ellipse opacity="0.2" cx="19.3596" cy="26.3791" rx="19.3596" ry="26.3791" transform="matrix(-0.866025 -0.5 -0.5 0.866025 653.912 506.192)" fill="white"/>
<ellipse cx="4.27108" cy="5.81969" rx="4.27108" ry="5.81969" transform="matrix(-0.866025 -0.5 -0.5 0.866025 630.565 516.453)" fill="white"/>
<path opacity="0.2" d="M622.001 169.191L472.001 82.6914L427.001 281.691L622.001 169.191Z" fill="white"/>
<mask id="mask2_437_1140" style="mask-type:alpha" maskUnits="userSpaceOnUse" x="607" y="477" width="247" height="234">
<rect x="607" y="477.188" width="247" height="233" fill="url(#paint7_linear_437_1140)"/>
</mask>
<g mask="url(#mask2_437_1140)">
<path fill-rule="evenodd" clip-rule="evenodd" d="M629.329 523.378C630.001 522.231 631.474 521.846 632.62 522.518L632.836 522.644C633.982 523.316 634.366 524.79 633.695 525.936C633.024 527.083 631.55 527.468 630.404 526.796L630.189 526.67C629.043 525.998 628.658 524.524 629.329 523.378ZM655.388 538.65C656.059 537.503 657.532 537.118 658.678 537.79L659.109 538.042C660.255 538.714 660.64 540.188 659.969 541.335C659.297 542.481 657.824 542.866 656.678 542.195L656.247 541.942C655.101 541.27 654.716 539.796 655.388 538.65ZM681.661 554.048C682.333 552.902 683.806 552.517 684.952 553.188L685.383 553.441C686.529 554.113 686.914 555.587 686.242 556.733C685.571 557.88 684.098 558.265 682.952 557.593L682.521 557.34C681.375 556.669 680.99 555.195 681.661 554.048ZM707.935 569.447C708.607 568.3 710.08 567.915 711.226 568.587L711.657 568.839C712.803 569.511 713.187 570.985 712.516 572.131C711.845 573.278 710.371 573.663 709.225 572.991L708.795 572.739C707.649 572.067 707.264 570.593 707.935 569.447ZM734.209 584.845C734.88 583.699 736.353 583.314 737.5 583.985L737.93 584.238C739.076 584.909 739.461 586.383 738.79 587.53C738.118 588.676 736.645 589.061 735.499 588.39L735.068 588.137C733.922 587.466 733.537 585.992 734.209 584.845ZM760.483 600.244C761.154 599.097 762.627 598.712 763.773 599.384L764.204 599.636C765.35 600.308 765.735 601.782 765.063 602.928C764.392 604.075 762.919 604.46 761.773 603.788L761.342 603.536C760.196 602.864 759.811 601.39 760.483 600.244ZM786.756 615.642C787.428 614.495 788.901 614.11 790.047 614.782L790.478 615.035C791.624 615.706 792.008 617.18 791.337 618.327C790.666 619.473 789.192 619.858 788.046 619.187L787.616 618.934C786.47 618.262 786.085 616.788 786.756 615.642ZM813.03 631.04C813.701 629.894 815.175 629.509 816.321 630.18L816.751 630.433C817.897 631.105 818.282 632.579 817.611 633.725C816.939 634.872 815.466 635.257 814.32 634.585L813.889 634.333C812.743 633.661 812.359 632.187 813.03 631.04ZM839.304 646.439C839.975 645.292 841.448 644.907 842.594 645.579L842.81 645.705C843.956 646.377 844.34 647.851 843.669 648.997C842.998 650.144 841.524 650.529 840.378 649.857L840.163 649.731C839.017 649.059 838.632 647.585 839.304 646.439Z" fill="white"/>
</g>
<mask id="mask3_437_1140" style="mask-type:alpha" maskUnits="userSpaceOnUse" x="0" y="516" width="234" height="147">
<rect y="516.188" width="234" height="146" fill="url(#paint8_linear_437_1140)"/>
</mask>
<g mask="url(#mask3_437_1140)">
<path fill-rule="evenodd" clip-rule="evenodd" d="M224.67 521.378C223.998 520.231 222.525 519.846 221.379 520.518L221.164 520.644C220.018 521.316 219.633 522.79 220.304 523.936C220.976 525.083 222.449 525.468 223.595 524.796L223.81 524.67C224.956 523.998 225.341 522.524 224.67 521.378ZM198.611 536.65C197.94 535.503 196.467 535.118 195.321 535.79L194.89 536.042C193.744 536.714 193.359 538.188 194.031 539.335C194.702 540.481 196.175 540.866 197.321 540.195L197.752 539.942C198.898 539.27 199.283 537.796 198.611 536.65ZM172.338 552.048C171.666 550.902 170.193 550.517 169.047 551.188L168.616 551.441C167.47 552.113 167.086 553.587 167.757 554.733C168.428 555.88 169.902 556.265 171.048 555.593L171.478 555.34C172.624 554.669 173.009 553.195 172.338 552.048ZM146.064 567.447C145.393 566.3 143.919 565.915 142.773 566.587L142.343 566.839C141.197 567.511 140.812 568.985 141.483 570.131C142.155 571.278 143.628 571.663 144.774 570.991L145.205 570.739C146.351 570.067 146.735 568.593 146.064 567.447ZM119.79 582.845C119.119 581.699 117.646 581.314 116.5 581.985L116.069 582.238C114.923 582.909 114.538 584.383 115.21 585.53C115.881 586.676 117.354 587.061 118.5 586.39L118.931 586.137C120.077 585.466 120.462 583.992 119.79 582.845ZM93.5167 598.244C92.8454 597.097 91.3721 596.712 90.2261 597.384L89.7953 597.636C88.6493 598.308 88.2645 599.782 88.9359 600.928C89.6072 602.075 91.0805 602.46 92.2266 601.788L92.6573 601.536C93.8033 600.864 94.1881 599.39 93.5167 598.244ZM67.2431 613.642C66.5717 612.495 65.0984 612.11 63.9524 612.782L63.5217 613.035C62.3756 613.706 61.9908 615.18 62.6622 616.327C63.3336 617.473 64.8068 617.858 65.9529 617.187L66.3836 616.934C67.5296 616.262 67.9144 614.788 67.2431 613.642ZM40.9694 629.04C40.298 627.894 38.8247 627.509 37.6787 628.18L37.248 628.433C36.102 629.105 35.7172 630.579 36.3885 631.725C37.0599 632.872 38.5332 633.257 39.6792 632.585L40.1099 632.333C41.2559 631.661 41.6407 630.187 40.9694 629.04ZM14.6957 644.439C14.0243 643.292 12.5511 642.907 11.405 643.579L11.1897 643.705C10.0437 644.377 9.65887 645.851 10.3302 646.997C11.0016 648.144 12.4749 648.529 13.6209 647.857L13.8362 647.731C14.9823 647.059 15.3671 645.585 14.6957 644.439Z" fill="white"/>
</g>
<defs>
<filter id="filter0_f_437_1140" x="307.003" y="226.191" width="242" height="242" filterUnits="userSpaceOnUse" color-interpolation-filters="sRGB">
<feFlood flood-opacity="0" result="BackgroundImageFix"/>
<feBlend mode="normal" in="SourceGraphic" in2="BackgroundImageFix" result="shape"/>
<feGaussianBlur stdDeviation="40" result="effect1_foregroundBlur_437_1140"/>
</filter>
<filter id="filter1_f_437_1140" x="383.003" y="302.191" width="90" height="90" filterUnits="userSpaceOnUse" color-interpolation-filters="sRGB">
<feFlood flood-opacity="0" result="BackgroundImageFix"/>
<feBlend mode="normal" in="SourceGraphic" in2="BackgroundImageFix" result="shape"/>
<feGaussianBlur stdDeviation="5" result="effect1_foregroundBlur_437_1140"/>
</filter>
<filter id="filter2_f_437_1140" x="389.003" y="311.191" width="79" height="71" filterUnits="userSpaceOnUse" color-interpolation-filters="sRGB">
<feFlood flood-opacity="0" result="BackgroundImageFix"/>
<feBlend mode="normal" in="SourceGraphic" in2="BackgroundImageFix" result="shape"/>
<feGaussianBlur stdDeviation="0.5" result="effect1_foregroundBlur_437_1140"/>
</filter>
<linearGradient id="paint0_linear_437_1140" x1="597" y1="314.687" x2="797.578" y2="228.454" gradientUnits="userSpaceOnUse">
<stop stop-color="white"/>
<stop offset="1" stop-color="white" stop-opacity="0"/>
</linearGradient>
<linearGradient id="paint1_linear_437_1140" x1="260" y1="317.188" x2="63.949" y2="165.94" gradientUnits="userSpaceOnUse">
<stop stop-color="white"/>
<stop offset="1" stop-color="white" stop-opacity="0"/>
</linearGradient>
<linearGradient id="paint2_linear_437_1140" x1="427.429" y1="378.003" x2="427.429" y2="328.003" gradientUnits="userSpaceOnUse">
<stop stop-color="#176DC1"/>
<stop offset="1" stop-color="#095198"/>
</linearGradient>
<linearGradient id="paint3_linear_437_1140" x1="468.429" y1="446.004" x2="509.429" y2="467.504" gradientUnits="userSpaceOnUse">
<stop stop-color="#095198"/>
<stop offset="1" stop-color="#004C97"/>
</linearGradient>
<linearGradient id="paint4_linear_437_1140" x1="427.429" y1="471.504" x2="346.429" y2="466.504" gradientUnits="userSpaceOnUse">
<stop stop-color="#005CB7"/>
<stop offset="1" stop-color="#004A93"/>
</linearGradient>
<linearGradient id="paint5_linear_437_1140" x1="427.503" y1="368.191" x2="427.091" y2="454.982" gradientUnits="userSpaceOnUse">
<stop stop-color="#003F81"/>
<stop offset="1" stop-color="#3987D5"/>
</linearGradient>
<radialGradient id="paint6_radial_437_1140" cx="0" cy="0" r="1" gradientUnits="userSpaceOnUse" gradientTransform="translate(428.003 347.191) rotate(90) scale(35)">
<stop stop-color="#FFAFC7"/>
<stop offset="1" stop-color="#E72E9D"/>
</radialGradient>
<linearGradient id="paint7_linear_437_1140" x1="620.488" y1="525.188" x2="860.53" y2="621.46" gradientUnits="userSpaceOnUse">
<stop stop-color="white"/>
<stop offset="1" stop-color="white" stop-opacity="0"/>
</linearGradient>
<linearGradient id="paint8_linear_437_1140" x1="224.5" y1="536.187" x2="-18.145" y2="620.415" gradientUnits="userSpaceOnUse">
<stop stop-color="white"/>
<stop offset="1" stop-color="white" stop-opacity="0"/>
</linearGradient>
</defs>
</svg>
