<svg width="36" height="40" viewBox="0 0 36 40" fill="none" xmlns="http://www.w3.org/2000/svg">
<path d="M19.77 1C25.2928 1 29.77 5.47715 29.77 11L29.77 15.4143L6.2315 15.4142L6.2315 11C6.2315 5.47715 10.7086 0.999999 16.2315 0.999999L19.77 1Z" stroke="#095198" stroke-width="2"/>
<path d="M35 39L35 15.413L0.999999 15.413L1 39L35 39Z" stroke="#095198" stroke-width="2"/>
<path d="M28.4621 27.2104C28.4621 27.2104 23.7783 32.452 18.0006 32.452C12.2229 32.452 7.53906 27.2104 7.53906 27.2104C7.53906 27.2104 12.2229 21.9689 18.0006 21.9689C23.7783 21.9689 28.4621 27.2104 28.4621 27.2104Z" stroke="#095198" stroke-width="2"/>
<path d="M18.0002 30.8291C19.9988 30.8291 21.6155 29.2061 21.6155 27.2083C21.6155 25.2105 19.9988 23.5875 18.0002 23.5875C16.0015 23.5875 14.3848 25.2105 14.3848 27.2083C14.3848 29.2061 16.0015 30.8291 18.0002 30.8291Z" fill="#E75CB0" stroke="#095198" stroke-width="2"/>
</svg>
